<svg width="10" height="8" viewBox="0 0 10 8" fill="none" xmlns="http://www.w3.org/2000/svg">
<path d="M8.65005 5.50427L5.6044 2.45824L5.60436 2.45821L5.53365 2.52891L8.65005 5.50427ZM8.65005 5.50427V4.00001C8.65005 3.8906 8.69351 3.78568 8.77087 3.70832C8.84823 3.63097 8.95315 3.58751 9.06255 3.58751C9.17195 3.58751 9.27687 3.63097 9.35423 3.70832C9.43159 3.78568 9.47505 3.8906 9.47505 4.00001V6.50001C9.47505 6.60941 9.43159 6.71433 9.35423 6.79169C9.27687 6.86905 9.17195 6.91251 9.06255 6.91251H6.56255C6.45315 6.91251 6.34823 6.86905 6.27087 6.79169C6.19351 6.71433 6.15005 6.60941 6.15005 6.50001C6.15005 6.3906 6.19351 6.28568 6.27087 6.20832C6.34823 6.13097 6.45315 6.08751 6.56255 6.08751H8.06683M8.65005 5.50427L5.38326 3.26251M3.97115 4.5336C3.94212 4.56265 3.90766 4.5857 3.86972 4.60143C3.83178 4.61716 3.79112 4.62525 3.75005 4.62525C3.70898 4.62525 3.66832 4.61716 3.63038 4.60143C3.59245 4.5857 3.55798 4.56265 3.52896 4.5336L3.45825 4.60431L3.45821 4.60427L0.645747 1.79181C0.568356 1.71442 0.524878 1.60945 0.524878 1.50001C0.524878 1.39056 0.568356 1.28559 0.645747 1.2082C0.723139 1.13081 0.828104 1.08733 0.937552 1.08733C1.047 1.08733 1.15196 1.13081 1.22936 1.2082L1.22936 1.20821L3.75005 3.72927L5.02071 2.45824L4.04187 4.6043L3.97115 4.5336ZM3.97115 4.5336L4.0419 4.60427L5.31256 3.33323M3.97115 4.5336L5.24185 3.26252L5.31256 3.33323M5.31256 3.33323L5.38326 3.26251M5.31256 3.33323L8.06683 6.08751M5.38326 3.26251L8.20825 6.08751H8.06683M5.38326 3.26251L8.16683 6.18751L8.06683 6.08751" fill="#33AF4F" stroke="#33AF4F" stroke-width="0.2"/>
</svg>
