<svg xmlns="http://www.w3.org/2000/svg" width="33" height="33" fill="none"><path stroke="#363636" stroke-width="2" d="M15.314 24.086h-.001c-2.587-2.346-4.686-4.253-6.145-6.038C7.716 16.27 6.96 14.688 6.96 13c0-2.758 2.15-4.9 4.9-4.9 1.559 0 3.065.729 4.045 1.87l.455.531.455-.53c.98-1.142 2.486-1.871 4.045-1.871 2.75 0 4.9 2.142 4.9 4.9 0 1.688-.756 3.27-2.208 5.048-1.46 1.785-3.558 3.692-6.145 6.038l-1.047.953-1.046-.953Z" stroke-opacity="0.41"/><circle cx="26.36" cy="9.5" r="4" fill="#EA4B57"/></svg>