<svg width="9" height="10" viewBox="0 0 9 10" fill="none" xmlns="http://www.w3.org/2000/svg">
<path fill-rule="evenodd" clip-rule="evenodd" d="M3.37184 3.63654L0.622994 6.38569C-0.0595527 7.06824 -0.0595527 8.17493 0.622994 8.85748C1.30554 9.54002 2.41223 9.54002 3.09509 8.85748L5.84393 6.10863C6.67356 6.20689 7.53926 5.93761 8.17548 5.30108C8.97152 4.50504 9.19292 3.35108 8.8319 2.35851C8.79552 2.25869 8.71063 2.18438 8.60708 2.16137C8.50322 2.13835 8.39501 2.17007 8.31976 2.24501L6.71026 3.85452L5.80662 3.67385L5.62595 2.77022L7.23546 1.16071C7.31071 1.08546 7.34212 0.977248 7.31911 0.873388C7.2961 0.76984 7.22178 0.68495 7.12196 0.648568C6.1297 0.287549 4.97544 0.508949 4.17939 1.30499C3.54318 1.94121 3.27389 2.8066 3.37184 3.63654ZM2.59787 6.8826C2.19021 6.47494 1.52787 6.47494 1.12021 6.8826C0.712238 7.29057 0.712238 7.9526 1.12021 8.36026C1.52787 8.76823 2.19021 8.76823 2.59787 8.36026C3.00553 7.9526 3.00553 7.29057 2.59787 6.8826Z" fill="#7583A1"/>
</svg>
